<svg width="1098" height="639" viewBox="0 0 1098 639" fill="none" xmlns="http://www.w3.org/2000/svg">
<path d="M2 330V380C2 388.485 2 392.728 4.63605 395.364C7.27206 398 11.5147 398 20 398H320C328.485 398 332.728 398 335.364 395.364C338 392.728 338 388.485 338 380V348C338 339.515 338 335.272 340.636 332.636C343.272 330 347.515 330 356 330H606M1033 374V335C1033 326.515 1033 322.272 1030.36 319.636C1027.73 317 1023.49 317 1015 317H772H656M304 637H531C539.485 637 543.728 637 546.364 634.364C549 631.728 549 627.485 549 619V585V448M939 614V551C939 542.515 939 538.272 936.364 535.636C933.728 533 929.485 533 921 533H744H673V415.5M1098 261H1026.13C1017.65 261 1013.4 261 1010.77 258.364C1008.13 255.728 1008.13 251.485 1008.13 243V216C1008.13 207.515 1008.13 203.272 1005.5 200.636C1002.86 198 998.617 198 990.132 198H750H615.5M1021 109H923.351C914.865 109 910.623 109 907.987 106.364C905.351 103.728 905.351 99.4853 905.351 91V20C905.351 11.5147 905.351 7.27208 902.715 4.63604C900.079 2 895.836 2 887.351 2H801H638.5V124.5M151 91H339C347.485 91 351.728 91 354.364 93.636C357 96.2721 357 100.515 357 109V125C357 133.485 357 137.728 359.636 140.364C362.272 143 366.515 143 375 143H615.5" stroke="#3430FF" stroke-width="3"/>
</svg>
