<svg width="572" height="405" viewBox="0 0 572 405" fill="none" xmlns="http://www.w3.org/2000/svg">
<path d="M2 358.409C141.934 414.494 293.171 295.578 335 227" stroke="#3430FF" stroke-width="3" stroke-linecap="round"/>
<path d="M570 45.3096C506.5 54 467 87 434 138" stroke="#3430FF" stroke-width="3" stroke-linecap="round"/>
<path d="M570 229.634C535.958 249.716 489.695 194.367 467 188" stroke="#3430FF" stroke-width="3" stroke-linecap="round"/>
<path d="M570 403C459.877 390.536 456 279 424 229" stroke="#3430FF" stroke-width="3" stroke-linecap="round"/>
<path d="M2 177C79.8077 78.8259 237.011 119.606 291 148.59" stroke="#3430FF" stroke-width="3" stroke-linecap="round"/>
<path fill-rule="evenodd" clip-rule="evenodd" d="M2.55751 18.7118C71.9351 -9.04063 142.571 4.64464 200.16 32.0193C257.786 59.4114 302.093 100.391 318.731 126.8C318.759 126.843 318.788 126.885 318.819 126.925L316.164 128.457C314.789 129.252 314.101 129.649 314.091 130.23C314.081 130.812 314.756 131.192 316.104 131.952L324.179 136.502C325.546 137.272 326.23 137.657 326.75 137.357C327.271 137.056 327.279 136.272 327.296 134.703L327.392 125.434C327.409 123.886 327.417 123.113 326.908 122.83C326.399 122.548 325.712 122.945 324.336 123.739L321.392 125.439C321.359 125.358 321.318 125.278 321.27 125.2C304.263 98.2066 259.464 56.8871 201.448 29.3098C143.395 1.71501 71.8536 -12.2392 1.44329 15.9264C0.674119 16.2341 0.30001 17.107 0.607694 17.8762C0.915377 18.6454 1.78834 19.0195 2.55751 18.7118Z" fill="#3430FF"/>
<path d="M429.39 146.384C427.906 146.893 427.164 147.148 426.706 146.758C426.249 146.368 426.383 145.595 426.652 144.049L428.24 134.917C428.505 133.392 428.637 132.629 429.189 132.444C429.74 132.259 430.344 132.775 431.553 133.805L438.732 139.929C439.94 140.959 440.544 141.475 440.449 142.048C440.353 142.622 439.621 142.873 438.157 143.376L429.39 146.384Z" fill="#3430FF"/>
<path d="M457.432 187.507C456.334 186.386 455.785 185.825 455.941 185.244C456.096 184.664 456.852 184.453 458.363 184.031L467.291 181.538C468.782 181.122 469.527 180.914 469.931 181.332C470.335 181.751 470.13 182.518 469.719 184.052L467.277 193.166C466.866 194.7 466.66 195.467 466.101 195.628C465.542 195.788 465 195.235 463.917 194.129L457.432 187.507Z" fill="#3430FF"/>
<path d="M417.95 221.404C417.966 219.835 417.974 219.051 418.495 218.75C419.016 218.449 419.699 218.834 421.066 219.605L429.141 224.155C430.49 224.915 431.164 225.295 431.154 225.877C431.144 226.458 430.457 226.855 429.081 227.649L420.909 232.367C419.534 233.161 418.846 233.558 418.337 233.276C417.829 232.994 417.837 232.22 417.853 230.672L417.95 221.404Z" fill="#3430FF"/>
<path d="M340.54 220.631C340.524 219.063 340.516 218.278 339.995 217.978C339.474 217.677 338.791 218.062 337.424 218.832L329.349 223.383C328 224.143 327.326 224.523 327.336 225.104C327.346 225.686 328.034 226.083 329.409 226.877L337.581 231.595C338.956 232.389 339.644 232.786 340.153 232.504C340.661 232.222 340.653 231.448 340.637 229.9L340.54 220.631Z" fill="#3430FF"/>
<path d="M302.726 151.746C303.66 153.007 304.127 153.637 303.893 154.191C303.659 154.745 302.882 154.851 301.327 155.061L292.142 156.307C290.608 156.515 289.841 156.619 289.498 156.149C289.155 155.679 289.464 154.948 290.081 153.485L293.75 144.791C294.367 143.327 294.676 142.596 295.252 142.514C295.827 142.432 296.288 143.054 297.209 144.297L302.726 151.746Z" fill="#3430FF"/>
</svg>
