<svg width="170" height="36" viewBox="0 0 170 36" fill="none" xmlns="http://www.w3.org/2000/svg">
<path d="M0 0H12.0259L24.8455 29.0709L37.6666 0H43.7276V36H37.6666V15.037L28.4105 36H21.282L12.0259 15.037V36H5.96491V6H0V0Z" fill="white"/>
<path d="M128.246 0V6L101.45 30H122.281V24H128.246V36H92.4561V30L119.252 6H98.421V12H92.4561V0H128.246Z" fill="white"/>
<path d="M170 0V6L143.204 30H164.035V24H170V36H134.211V30L161.006 6H140.175V12H134.211V0H170Z" fill="white"/>
<path fill-rule="evenodd" clip-rule="evenodd" d="M68.5965 36C78.4788 36 86.4912 27.9412 86.4912 18C86.4912 8.05884 78.4788 0 68.5965 0C58.7142 0 50.7018 8.05884 50.7018 18C50.7018 27.9412 58.7142 36 68.5965 36ZM68.5965 30C75.1847 30 80.5263 24.6273 80.5263 18C80.5263 11.3727 75.1847 6 68.5965 6C62.0083 6 56.6667 11.3727 56.6667 18C56.6667 24.6273 62.0083 30 68.5965 30Z" fill="white"/>
</svg>
