<svg width="132" height="27" viewBox="0 0 132 27" fill="none" xmlns="http://www.w3.org/2000/svg">
<path d="M0 0H9.33779L19.2918 21.8032L29.247 0H33.9532V27H29.247V11.2777L22.0599 27H16.5249L9.33779 11.2777V27H4.63158V4.5H0V0Z" fill="black"/>
<path d="M99.5789 0V4.5L78.773 22.5H94.9474V18H99.5789V27H71.7895V22.5L92.5954 4.5H76.421V9H71.7895V0H99.5789Z" fill="black"/>
<path d="M132 0V4.5L111.194 22.5H127.368V18H132V27H104.211V22.5L125.016 4.5H108.842V9H104.211V0H132Z" fill="black"/>
<path fill-rule="evenodd" clip-rule="evenodd" d="M53.2632 27C60.9365 27 67.1579 20.9559 67.1579 13.5C67.1579 6.04413 60.9365 0 53.2632 0C45.5898 0 39.3684 6.04413 39.3684 13.5C39.3684 20.9559 45.5898 27 53.2632 27ZM53.2632 22.5C58.3787 22.5 62.5263 18.4705 62.5263 13.5C62.5263 8.52951 58.3787 4.5 53.2632 4.5C48.1476 4.5 44 8.52951 44 13.5C44 18.4705 48.1476 22.5 53.2632 22.5Z" fill="black"/>
</svg>
